<svg xmlns="http://www.w3.org/2000/svg" xmlns:xlink="http://www.w3.org/1999/xlink" width="500" zoomAndPan="magnify" viewBox="0 0 375 374.999991" height="500" preserveAspectRatio="xMidYMid meet" version="1.0"><path fill="#1f1f1f" d="M 290.132812 84.742188 C 346.808594 141.421875 346.808594 233.453125 290.132812 290.132812 C 233.453125 346.808594 141.421875 346.808594 84.742188 290.132812 C 28.0625 233.453125 28.0625 141.421875 84.742188 84.742188 C 141.421875 28.0625 233.453125 28.0625 290.132812 84.742188 Z M 290.132812 84.742188 " fill-opacity="1" fill-rule="evenodd"/><path fill="#cccccc" d="M 187.4375 52.21875 C 112.808594 52.21875 52.21875 112.808594 52.21875 187.4375 C 52.21875 262.066406 112.808594 322.652344 187.4375 322.652344 C 262.066406 322.652344 322.652344 262.066406 322.652344 187.4375 C 322.652344 112.808594 262.066406 52.21875 187.4375 52.21875 Z M 187.4375 52.21875 " fill-opacity="1" fill-rule="evenodd"/><path fill="#1f1f1f" d="M 187.4375 62.238281 C 256.535156 62.238281 312.636719 118.335938 312.636719 187.4375 C 312.636719 256.535156 256.535156 312.636719 187.4375 312.636719 C 118.335938 312.636719 62.238281 256.535156 62.238281 187.4375 C 62.238281 118.335938 118.335938 62.238281 187.4375 62.238281 Z M 187.4375 62.238281 " fill-opacity="1" fill-rule="evenodd"/><path fill="#26373f" d="M 187.4375 72.253906 C 123.863281 72.253906 72.253906 123.863281 72.253906 187.4375 C 72.253906 251.007812 123.863281 302.621094 187.4375 302.621094 C 251.007812 302.621094 302.621094 251.007812 302.621094 187.4375 C 302.621094 123.863281 251.007812 72.253906 187.4375 72.253906 Z M 187.4375 72.253906 " fill-opacity="1" fill-rule="evenodd"/><path fill="#ffffff" d="M 165.117188 220.636719 L 158.035156 227.71875 L 117.753906 187.4375 L 158.035156 147.15625 L 165.117188 154.238281 L 131.917969 187.4375 Z M 165.117188 220.636719 " fill-opacity="1" fill-rule="evenodd"/><path fill="#ffffff" d="M 216.835938 227.71875 L 209.757812 220.636719 L 242.953125 187.4375 L 209.757812 154.238281 L 216.835938 147.15625 L 257.117188 187.4375 Z M 216.835938 227.71875 " fill-opacity="1" fill-rule="evenodd"/><path fill="#ffffff" d="M 198.152344 128.09375 L 207.828125 130.683594 L 176.71875 246.78125 L 167.046875 244.1875 Z M 198.152344 128.09375 " fill-opacity="1" fill-rule="evenodd"/><path fill="#000000" d="M 75.710938 47.5 C 82.683594 41.921875 90.105469 36.84375 97.789062 32.367188 L 97.949219 32.261719 L 93.789062 25.105469 L 93.632812 25.210938 C 85.578125 29.867188 77.816406 35.210938 70.527344 41.027344 L 70.367188 41.15625 L 75.550781 47.632812 Z M 75.710938 47.5 " fill-opacity="1" fill-rule="nonzero"/><path fill="#000000" d="M 327.394531 75.65625 L 327.527344 75.816406 L 334 70.632812 L 333.867188 70.472656 C 330.949219 66.84375 327.867188 63.261719 324.710938 59.867188 L 324.578125 59.738281 L 318.5 65.394531 L 318.632812 65.550781 C 321.65625 68.816406 324.605469 72.210938 327.394531 75.683594 Z M 327.394531 75.65625 " fill-opacity="1" fill-rule="nonzero"/><path fill="#000000" d="M 12.761719 227.421875 L 12.710938 227.238281 L 4.632812 229.078125 L 4.683594 229.261719 C 8.84375 247.527344 15.738281 265 25.15625 281.238281 L 25.261719 281.394531 L 32.449219 277.238281 L 32.34375 277.078125 C 23.34375 261.550781 16.761719 244.84375 12.761719 227.421875 Z M 12.761719 227.421875 " fill-opacity="1" fill-rule="nonzero"/><path fill="#000000" d="M 47.449219 299.183594 L 47.316406 299.027344 L 40.84375 304.210938 L 40.972656 304.367188 C 43.867188 308 46.949219 311.550781 50.132812 314.972656 L 50.261719 315.105469 L 56.183594 309.605469 L 56.316406 309.472656 L 56.183594 309.316406 C 53.15625 306.050781 50.210938 302.632812 47.449219 299.183594 Z M 47.449219 299.183594 " fill-opacity="1" fill-rule="nonzero"/><path fill="#000000" d="M 362.132812 147.367188 L 362.183594 147.550781 L 370.078125 145.738281 L 370.261719 145.683594 L 370.210938 145.5 C 366.027344 127.261719 359.105469 109.789062 349.683594 93.550781 L 349.578125 93.394531 L 342.421875 97.550781 L 342.527344 97.710938 C 351.550781 113.238281 358.132812 129.921875 362.132812 147.367188 Z M 362.132812 147.367188 " fill-opacity="1" fill-rule="nonzero"/><path fill="#000000" d="M 147.261719 12.84375 L 147.449219 12.789062 C 151.789062 11.789062 156.210938 10.949219 160.605469 10.289062 L 160.789062 10.289062 C 160.789062 10.289062 159.550781 2.050781 159.550781 2.050781 L 159.367188 2.050781 C 154.761719 2.789062 150.132812 3.65625 145.605469 4.683594 L 145.421875 4.738281 L 147.238281 12.632812 L 147.289062 12.816406 Z M 147.261719 12.84375 " fill-opacity="1" fill-rule="nonzero"/><path fill="#000000" d="M 32.261719 98 C 41.238281 82.527344 52.421875 68.472656 65.578125 56.261719 L 65.710938 56.132812 L 60.050781 50.050781 L 59.894531 50.183594 C 46.15625 62.949219 34.421875 77.65625 25.050781 93.84375 L 24.949219 94 L 32.132812 98.15625 L 32.238281 98 Z M 32.261719 98 " fill-opacity="1" fill-rule="nonzero"/><path fill="#000000" d="M 276.867188 32.238281 L 277.027344 32.34375 L 281.183594 25.15625 L 281.027344 25.050781 C 272.949219 20.367188 264.449219 16.289062 255.789062 12.894531 L 255.605469 12.816406 L 252.578125 20.527344 L 252.761719 20.605469 C 261.050781 23.867188 269.15625 27.761719 276.894531 32.238281 Z M 276.867188 32.238281 " fill-opacity="1" fill-rule="nonzero"/><path fill="#000000" d="M 187.289062 8.289062 L 187.472656 8.289062 C 205.394531 8.289062 223.105469 10.949219 240.105469 16.183594 L 240.289062 16.238281 L 242.738281 8.316406 L 242.550781 8.261719 C 224.761719 2.789062 206.238281 0 187.5 0 L 187.132812 0 L 187.316406 8.105469 L 187.316406 8.289062 Z M 187.289062 8.289062 " fill-opacity="1" fill-rule="nonzero"/><path fill="#000000" d="M 16.210938 134.761719 C 17.527344 130.5 19.027344 126.238281 20.632812 122.105469 L 20.710938 121.921875 L 13 118.894531 L 12.921875 119.078125 C 11.210938 123.421875 9.65625 127.867188 8.289062 132.316406 L 8.238281 132.5 L 16.15625 134.949219 Z M 16.210938 134.761719 " fill-opacity="1" fill-rule="nonzero"/><path fill="#000000" d="M 10.289062 214.261719 C 8.972656 205.5 8.289062 196.5 8.289062 187.550781 L 8.289062 187.34375 L 0 187.34375 L 0 187.550781 C 0 196.894531 0.710938 206.289062 2.078125 215.472656 L 2.078125 215.65625 C 2.078125 215.65625 10.316406 214.421875 10.316406 214.421875 L 10.316406 214.238281 Z M 10.289062 214.261719 " fill-opacity="1" fill-rule="nonzero"/><path fill="#000000" d="M 358.816406 240.027344 C 357.5 244.289062 356.027344 248.550781 354.394531 252.683594 L 354.316406 252.867188 L 362.027344 255.894531 L 362.105469 255.710938 C 363.816406 251.367188 365.367188 246.921875 366.738281 242.472656 L 366.789062 242.289062 L 358.867188 239.84375 Z M 358.816406 240.027344 " fill-opacity="1" fill-rule="nonzero"/><path fill="#000000" d="M 134.683594 358.738281 L 134.5 358.683594 L 132.105469 366.421875 L 132.050781 366.605469 L 132.238281 366.65625 C 150.078125 372.15625 168.65625 374.972656 187.472656 374.972656 L 188.027344 374.972656 L 188.027344 366.683594 L 187.472656 366.683594 C 169.5 366.683594 151.738281 364.027344 134.683594 358.761719 Z M 134.683594 358.738281 " fill-opacity="1" fill-rule="nonzero"/><path fill="#000000" d="M 227.867188 362.078125 L 227.683594 362.132812 C 223.316406 363.132812 218.894531 363.972656 214.527344 364.632812 L 214.34375 364.632812 C 214.34375 364.632812 215.578125 372.867188 215.578125 372.867188 L 215.761719 372.867188 C 220.367188 372.132812 225 371.261719 229.527344 370.210938 L 229.710938 370.15625 L 227.894531 362.261719 L 227.84375 362.078125 Z M 227.867188 362.078125 " fill-opacity="1" fill-rule="nonzero"/><path fill="#000000" d="M 299.367188 327.34375 C 292.421875 332.921875 285 338 277.289062 342.472656 L 277.132812 342.578125 L 281.289062 349.738281 L 281.449219 349.632812 C 289.5 344.949219 297.261719 339.632812 304.527344 333.789062 L 304.683594 333.65625 L 299.5 327.183594 L 299.34375 327.316406 Z M 299.367188 327.34375 " fill-opacity="1" fill-rule="nonzero"/><path fill="#000000" d="M 97.921875 342.65625 L 97.761719 342.550781 L 93.710938 349.550781 L 93.605469 349.738281 L 93.761719 349.84375 C 101.84375 354.527344 110.316406 358.632812 119 362.027344 L 119.183594 362.105469 L 122.210938 354.394531 L 122.027344 354.316406 C 113.738281 351.050781 105.632812 347.132812 97.921875 342.65625 Z M 97.921875 342.65625 " fill-opacity="1" fill-rule="nonzero"/><path fill="#000000" d="M 342.761719 276.816406 C 333.816406 292.316406 322.632812 306.367188 309.5 318.578125 L 309.367188 318.710938 L 314.894531 324.632812 L 315.027344 324.789062 L 315.183594 324.65625 C 328.921875 311.867188 340.632812 297.15625 349.972656 280.972656 L 350.078125 280.816406 L 342.894531 276.65625 L 342.789062 276.816406 Z M 342.761719 276.816406 " fill-opacity="1" fill-rule="nonzero"/><path fill="#000000" d="M 372.84375 159.289062 L 372.84375 159.105469 C 372.84375 159.105469 364.605469 160.34375 364.605469 160.34375 L 364.605469 160.527344 C 365.972656 169.289062 366.632812 178.289062 366.65625 187.210938 L 366.65625 187.421875 C 366.65625 187.421875 374.761719 187.421875 374.761719 187.421875 L 374.972656 187.421875 L 374.972656 187.210938 C 374.972656 177.867188 374.238281 168.472656 372.867188 159.289062 Z M 372.84375 159.289062 " fill-opacity="1" fill-rule="nonzero"/><path fill="#000000" d="M 42.710938 263.238281 C 38.5 255.238281 35 246.867188 32.183594 238.261719 L 39.34375 235.921875 C 42.027344 244.132812 45.34375 252.15625 49.367188 259.789062 L 49.472656 259.972656 L 56.816406 256.132812 L 56.738281 255.949219 C 45.710938 234.972656 39.894531 211.316406 39.894531 187.5 C 39.894531 169.867188 42.972656 152.605469 49.078125 136.210938 L 49.15625 136.027344 L 41.394531 133.132812 L 41.316406 133.316406 C 40.578125 135.289062 39.894531 137.289062 39.238281 139.289062 L 32.105469 136.972656 C 32.789062 134.867188 33.527344 132.761719 34.289062 130.65625 L 34.367188 130.472656 L 26.605469 127.578125 L 26.527344 127.761719 C 19.421875 146.867188 15.816406 166.949219 15.816406 187.472656 C 15.816406 215.15625 22.578125 242.683594 35.421875 267.078125 L 35.5 267.261719 L 42.84375 263.421875 L 42.761719 263.238281 Z M 31.738281 180.421875 L 24.238281 180.105469 C 24.449219 175.34375 24.867188 170.605469 25.5 165.894531 L 32.921875 166.894531 C 32.316406 171.367188 31.921875 175.894531 31.738281 180.421875 Z M 31.738281 180.421875 " fill-opacity="1" fill-rule="nonzero"/><path fill="#000000" d="M 328.710938 105.367188 L 328.816406 105.527344 C 329.605469 106.867188 330.34375 108.210938 331.078125 109.578125 L 324.5 113.15625 C 323.789062 111.84375 323.050781 110.527344 322.289062 109.210938 L 322.183594 109.050781 L 315.027344 113.238281 L 315.132812 113.394531 C 327.578125 134.761719 334.472656 159.183594 335.078125 183.972656 L 335.078125 184.15625 C 335.078125 184.15625 343.367188 183.972656 343.367188 183.972656 L 343.367188 183.761719 C 343 168.578125 340.394531 153.527344 335.710938 139.15625 L 342.84375 136.816406 C 347.761719 151.921875 350.527344 167.710938 350.867188 183.683594 L 350.867188 183.867188 C 350.867188 183.867188 358.972656 183.683594 358.972656 183.683594 L 359.183594 183.683594 C 359.183594 183.683594 359.183594 183.472656 359.183594 183.472656 C 358.527344 154.632812 350.527344 126.238281 336.027344 101.34375 L 335.921875 101.183594 L 328.921875 105.261719 L 328.761719 105.367188 Z M 328.710938 105.367188 " fill-opacity="1" fill-rule="nonzero"/><path fill="#000000" d="M 342.84375 193.867188 L 342.84375 194.078125 C 342.632812 198.710938 342.238281 203.394531 341.632812 207.972656 L 341.632812 208.15625 C 341.632812 208.15625 349.816406 209.238281 349.816406 209.238281 L 349.816406 209.050781 C 350.472656 204.238281 350.894531 199.316406 351.105469 194.421875 L 351.105469 194.238281 C 351.105469 194.238281 343.027344 193.894531 343.027344 193.894531 L 342.84375 193.894531 Z M 342.84375 193.867188 " fill-opacity="1" fill-rule="nonzero"/><path fill="#000000" d="M 187.183594 23.683594 C 177.367188 23.683594 167.550781 24.605469 157.972656 26.34375 L 157.789062 26.34375 C 157.789062 26.34375 159.238281 34.34375 159.238281 34.34375 L 159.238281 34.527344 C 159.238281 34.527344 159.472656 34.5 159.472656 34.5 C 168.578125 32.84375 177.894531 32 187.210938 31.972656 L 187.421875 31.972656 C 187.421875 31.972656 187.421875 23.867188 187.421875 23.867188 L 187.421875 23.65625 L 187.210938 23.65625 Z M 187.183594 23.683594 " fill-opacity="1" fill-rule="nonzero"/><path fill="#000000" d="M 217 348.15625 C 216.394531 348.261719 215.816406 348.421875 215.210938 348.527344 L 215.027344 348.527344 C 215.027344 348.527344 216.421875 356.738281 216.421875 356.738281 L 216.605469 356.738281 C 264.289062 348.527344 306.578125 320.238281 332.65625 279.078125 L 332.761719 278.921875 L 326.078125 274.683594 C 333.394531 263.105469 339.238281 250.738281 343.449219 237.65625 L 343.5 237.472656 L 335.605469 234.921875 L 335.550781 235.105469 C 331.550781 247.472656 326.027344 259.210938 319.105469 270.183594 L 312.472656 265.972656 L 312.367188 266.132812 C 290 301.527344 253.632812 325.867188 212.65625 332.921875 L 212.472656 332.921875 C 212.472656 332.921875 213.894531 341.132812 213.894531 341.132812 L 214.078125 341.132812 C 214.605469 341 215.132812 340.867188 215.683594 340.789062 L 217.050781 348.15625 Z M 300.550781 294.632812 C 303.65625 291.34375 306.65625 287.949219 309.5 284.394531 L 315.367188 289.050781 C 312.394531 292.789062 309.261719 296.34375 306 299.789062 L 300.578125 294.632812 Z M 279.289062 313.34375 L 283.710938 319.394531 C 268.050781 330.84375 250.449219 339.5 231.65625 344.789062 L 229.632812 337.578125 C 247.550781 332.527344 264.34375 324.261719 279.289062 313.367188 Z M 279.289062 313.34375 " fill-opacity="1" fill-rule="nonzero"/><path fill="#000000" d="M 50.578125 261.210938 L 50.472656 261.027344 L 43.183594 264.972656 L 43.289062 265.15625 C 45.605469 269.449219 48.15625 273.683594 50.84375 277.738281 L 50.949219 277.894531 L 57.867188 273.316406 L 57.761719 273.15625 C 55.210938 269.289062 52.789062 265.261719 50.578125 261.210938 Z M 50.578125 261.210938 " fill-opacity="1" fill-rule="nonzero"/><path fill="#000000" d="M 111.027344 61.238281 L 106.921875 54.5 C 119.078125 47.105469 132.132812 41.421875 145.867188 37.605469 L 146.050781 37.550781 L 143.84375 29.550781 L 143.65625 29.605469 C 129.183594 33.632812 115.472656 39.605469 102.683594 47.367188 L 98.578125 40.632812 L 98.421875 40.738281 C 73.816406 55.738281 53.183594 76.84375 38.761719 101.761719 L 38.65625 101.921875 L 45.84375 106.078125 L 45.949219 105.921875 C 50 98.921875 54.605469 92.289062 59.632812 86 L 65.5 90.65625 C 60.710938 96.683594 56.316406 103 52.449219 109.683594 L 52.34375 109.84375 L 59.527344 114 L 59.632812 113.84375 C 72.027344 92.394531 89.761719 74.238281 110.921875 61.34375 L 111.078125 61.238281 Z M 74.867188 79.816406 L 69.449219 74.65625 C 76.105469 67.683594 83.394531 61.34375 91.15625 55.632812 L 95.578125 61.683594 C 88.15625 67.132812 81.210938 73.183594 74.867188 79.816406 Z M 74.867188 79.816406 " fill-opacity="1" fill-rule="nonzero"/><path fill="#000000" d="M 116.421875 316.84375 L 116.238281 316.738281 L 112.449219 323.632812 C 106.816406 320.5 101.34375 317.050781 96.132812 313.261719 L 95.972656 313.15625 L 91.210938 319.710938 L 91.105469 319.867188 L 91.261719 319.972656 C 96.761719 323.972656 102.527344 327.605469 108.472656 330.894531 L 104.65625 337.84375 L 104.84375 337.949219 C 130.027344 351.84375 158.605469 359.183594 187.5 359.183594 L 188.183594 359.183594 L 188.183594 351.289062 L 188.238281 351.289062 L 188.238281 335.105469 L 187.472656 335.105469 C 162.65625 335.105469 138.078125 328.789062 116.421875 316.867188 Z M 116.789062 334.761719 L 120.050781 328 C 124.132812 329.972656 128.316406 331.738281 132.550781 333.34375 L 129.921875 340.367188 C 125.472656 338.683594 121.105469 336.816406 116.816406 334.761719 Z M 116.789062 334.761719 " fill-opacity="1" fill-rule="nonzero"/><path fill="#000000" d="M 300.949219 93.183594 L 301.078125 93.34375 L 307.132812 88.316406 C 310.65625 92.550781 313.972656 96.972656 317.050781 101.605469 L 317.15625 101.761719 L 324.050781 97.15625 L 323.949219 97 C 320.710938 92.15625 317.238281 87.527344 313.550781 83.078125 L 319.632812 78.027344 L 319.5 77.867188 C 288.367188 40.449219 242.789062 17.894531 194.421875 15.949219 L 194.238281 15.949219 C 194.238281 15.949219 193.921875 24.027344 193.921875 24.027344 L 193.921875 24.210938 C 193.921875 24.210938 194.105469 24.210938 194.105469 24.210938 C 211.449219 24.894531 228.421875 28.394531 244.421875 34.367188 L 241.789062 41.394531 C 226.5 35.683594 210.316406 32.367188 193.738281 31.710938 L 193.550781 31.710938 C 193.550781 31.710938 193.238281 39.789062 193.238281 39.789062 L 193.238281 39.972656 C 193.238281 39.972656 193.421875 39.972656 193.421875 39.972656 C 235 41.632812 274.210938 61 300.972656 93.15625 Z M 283.027344 55.078125 L 278.632812 61.15625 C 271.15625 55.761719 263.238281 51.050781 254.972656 47.078125 L 258.210938 40.316406 C 266.867188 44.5 275.183594 49.449219 283 55.105469 Z M 283.027344 55.078125 " fill-opacity="1" fill-rule="nonzero"/></svg>